REM DIRINDEX 1\2,1\3
REM DIRNAME cjc039,folder01,folder02
TITLE ""
FILE "1501-1520.mp3" MP3
  TRACK 01 AUDIO
    TITLE "0:"
    INDEX 01 00:00:00
  TRACK 02 AUDIO
    TITLE "2:cjc039_2001"
    INDEX 01 00:00:25
  TRACK 03 AUDIO
    TITLE "0:"
    INDEX 01 00:01:32
  TRACK 04 AUDIO
    TITLE "3:cjc039_2002"
    INDEX 01 00:02:08
  TRACK 05 AUDIO
    TITLE "0:"
    INDEX 01 00:06:24
  TRACK 06 AUDIO
    TITLE "2:cjc039_2003"
    INDEX 01 00:07:70
  TRACK 07 AUDIO
    TITLE "0:"
    INDEX 01 00:09:30
  TRACK 08 AUDIO
    TITLE "3:cjc039_2004"
    INDEX 01 00:10:04
  TRACK 09 AUDIO
    TITLE "0:"
    INDEX 01 00:15:48
  TRACK 10 AUDIO
    TITLE "2:cjc039_2005"
    INDEX 01 00:17:21
  TRACK 11 AUDIO
    TITLE "0:"
    INDEX 01 00:18:21
  TRACK 12 AUDIO
    TITLE "3:cjc039_2006"
    INDEX 01 00:18:70
  TRACK 13 AUDIO
    TITLE "0:"
    INDEX 01 00:22:62
  TRACK 14 AUDIO
    TITLE "2:cjc039_2007"
    INDEX 01 00:24:39
  TRACK 15 AUDIO
    TITLE "0:"
    INDEX 01 00:25:56
  TRACK 16 AUDIO
    TITLE "3:cjc039_2008"
    INDEX 01 00:26:28
  TRACK 17 AUDIO
    TITLE "0:"
    INDEX 01 00:30:55
  TRACK 18 AUDIO
    TITLE "2:cjc039_2009"
    INDEX 01 00:32:31
  TRACK 19 AUDIO
    TITLE "0:"
    INDEX 01 00:33:44
  TRACK 20 AUDIO
    TITLE "3:cjc039_2010"
    INDEX 01 00:34:18
  TRACK 21 AUDIO
    TITLE "0:"
    INDEX 01 00:38:20
  TRACK 22 AUDIO
    TITLE "2:cjc039_2011"
    INDEX 01 00:39:70
  TRACK 23 AUDIO
    TITLE "0:"
    INDEX 01 00:41:32
  TRACK 24 AUDIO
    TITLE "3:cjc039_2012"
    INDEX 01 00:42:08
  TRACK 25 AUDIO
    TITLE "0:"
    INDEX 01 00:45:47
  TRACK 26 AUDIO
    TITLE "2:cjc039_2013"
    INDEX 01 00:47:21
  TRACK 27 AUDIO
    TITLE "0:"
    INDEX 01 00:48:36
  TRACK 28 AUDIO
    TITLE "3:cjc039_2014"
    INDEX 01 00:49:16
  TRACK 29 AUDIO
    TITLE "0:"
    INDEX 01 00:51:65
  TRACK 30 AUDIO
    TITLE "2:cjc039_2015"
    INDEX 01 00:53:39
  TRACK 31 AUDIO
    TITLE "0:"
    INDEX 01 00:54:68
  TRACK 32 AUDIO
    TITLE "3:cjc039_2016"
    INDEX 01 00:55:38
  TRACK 33 AUDIO
    TITLE "0:"
    INDEX 01 01:00:27
  TRACK 34 AUDIO
    TITLE "2:cjc039_2017"
    INDEX 01 01:02:01
  TRACK 35 AUDIO
    TITLE "0:"
    INDEX 01 01:03:18
  TRACK 36 AUDIO
    TITLE "3:cjc039_2018"
    INDEX 01 01:03:73
  TRACK 37 AUDIO
    TITLE "0:"
    INDEX 01 01:07:12
  TRACK 38 AUDIO
    TITLE "2:cjc039_2019"
    INDEX 01 01:08:64
  TRACK 39 AUDIO
    TITLE "0:"
    INDEX 01 01:10:30
  TRACK 40 AUDIO
    TITLE "3:cjc039_2020"
    INDEX 01 01:11:09
  TRACK 41 AUDIO
    TITLE "0:"
    INDEX 01 01:14:59
  TRACK 42 AUDIO
    TITLE "2:cjc039_2021"
    INDEX 01 01:16:32
  TRACK 43 AUDIO
    TITLE "0:"
    INDEX 01 01:17:57
  TRACK 44 AUDIO
    TITLE "3:cjc039_2022"
    INDEX 01 01:18:39
  TRACK 45 AUDIO
    TITLE "0:"
    INDEX 01 01:22:21
  TRACK 46 AUDIO
    TITLE "2:cjc039_2023"
    INDEX 01 01:23:71
  TRACK 47 AUDIO
    TITLE "0:"
    INDEX 01 01:25:29
  TRACK 48 AUDIO
    TITLE "3:cjc039_2024"
    INDEX 01 01:26:07
  TRACK 49 AUDIO
    TITLE "0:"
    INDEX 01 01:30:38
  TRACK 50 AUDIO
    TITLE "2:cjc039_2025"
    INDEX 01 01:32:08
  TRACK 51 AUDIO
    TITLE "0:"
    INDEX 01 01:33:34
  TRACK 52 AUDIO
    TITLE "3:cjc039_2026"
    INDEX 01 01:34:10
  TRACK 53 AUDIO
    TITLE "0:"
    INDEX 01 01:38:32
  TRACK 54 AUDIO
    TITLE "2:cjc039_2027"
    INDEX 01 01:40:01
  TRACK 55 AUDIO
    TITLE "0:"
    INDEX 01 01:41:26
  TRACK 56 AUDIO
    TITLE "3:cjc039_2028"
    INDEX 01 01:41:73
  TRACK 57 AUDIO
    TITLE "0:"
    INDEX 01 01:46:18
  TRACK 58 AUDIO
    TITLE "2:cjc039_2029"
    INDEX 01 01:47:68
  TRACK 59 AUDIO
    TITLE "0:"
    INDEX 01 01:49:08
  TRACK 60 AUDIO
    TITLE "3:cjc039_2030"
    INDEX 01 01:49:61
  TRACK 61 AUDIO
    TITLE "0:"
    INDEX 01 01:53:57
  TRACK 62 AUDIO
    TITLE "2:cjc039_2031"
    INDEX 01 01:55:34
  TRACK 63 AUDIO
    TITLE "0:"
    INDEX 01 01:56:63
  TRACK 64 AUDIO
    TITLE "3:cjc039_2032"
    INDEX 01 01:57:35
  TRACK 65 AUDIO
    TITLE "0:"
    INDEX 01 02:01:50
  TRACK 66 AUDIO
    TITLE "2:cjc039_2033"
    INDEX 01 02:03:26
  TRACK 67 AUDIO
    TITLE "0:"
    INDEX 01 02:04:27
  TRACK 68 AUDIO
    TITLE "3:cjc039_2034"
    INDEX 01 02:05:01
  TRACK 69 AUDIO
    TITLE "0:"
    INDEX 01 02:09:09
  TRACK 70 AUDIO
    TITLE "2:cjc039_2035"
    INDEX 01 02:10:57
  TRACK 71 AUDIO
    TITLE "0:"
    INDEX 01 02:12:11
  TRACK 72 AUDIO
    TITLE "3:cjc039_2036"
    INDEX 01 02:12:58
  TRACK 73 AUDIO
    TITLE "0:"
    INDEX 01 02:17:65
  TRACK 74 AUDIO
    TITLE "2:cjc039_2037"
    INDEX 01 02:19:37
  TRACK 75 AUDIO
    TITLE "0:"
    INDEX 01 02:20:61
  TRACK 76 AUDIO
    TITLE "3:cjc039_2038"
    INDEX 01 02:21:37
  TRACK 77 AUDIO
    TITLE "0:"
    INDEX 01 02:25:41
  TRACK 78 AUDIO
    TITLE "2:cjc039_2039"
    INDEX 01 02:27:14
  TRACK 79 AUDIO
    TITLE "0:"
    INDEX 01 02:28:53
  TRACK 80 AUDIO
    TITLE "3:cjc039_2040"
    INDEX 01 02:29:29
  TRACK 81 AUDIO
    TITLE "0:"
    INDEX 01 02:33:45
